<svg xmlns="http://www.w3.org/2000/svg" xmlns:xlink="http://www.w3.org/1999/xlink" version="1.1" x="0px" y="0px" viewBox="0 0 1000 1250" style="enable-background:new 0 0 1000 1000;" xml:space="preserve"><g><path d="M962.3453979,572.3109741c-6.859375-7.7349854-11.3717651-17.1826782-13.8903198-27.1651001   c-6.6882935-26.5088501-8.3903198-54.2375488-13.7625732-81.03302c-4.821167-24.0463867-12.1427002-47.6156616-22.543457-69.848999   c-5.3579102-11.4534302-11.5350952-22.5272827-18.4937744-33.0855103   c-3.296936-5.0023804-6.7695923-9.8895264-10.4084473-14.6489868c-2.2627563-2.9596558-9.286499-8.3566284-7.2402954-12.5316772   c12.2421265,0,25.0627441,0,39.145752,0c-21.9509277-34.0044556-46.4902954-63.6317749-75.4915771-90.7883301   c31.5280762-4.0441284,57.6011963-18.1456909,82.7250977-36.49823c-27.295105,1.3883667-46.8606567-12.6241455-61.105835-34.829895   c-7.8577271-12.2489014-13.9818726-25.5169678-21.8050537-37.8069458   c-7.2232666-11.3474121-15.2476807-22.1915894-24.0842896-32.3356934   c-18.2255859-20.9223022-39.9648438-38.7556152-64.2167969-52.2663574   c-25.4391479-14.1721802-54.4754639-23.6098633-83.7614136-24.1712646   c-31.7243652-0.6081543-61.593811,11.4154663-89.4265747,25.4542236   c4.4749146-16.3901978,15.9798584-26.1127319,28.1251221-36.1523438   c-42.0544434-8.8747559-83.62854,7.5444946-105.7910156,44.664856   c-28.9188843-39.2581787-69.9031372-56.4031372-105.6066895-44.09375   c12.5792847,9.3015747,23.3728638,20.3128052,27.7250977,35.7332764   c-29.1975098-14.8720703-60.317749-26.5328979-93.585083-25.5236816   c-54.9384766,1.666626-107.1885986,34.2719116-142.6876221,74.6809082   c-17.9804077,20.4672852-30.4335327,43.5471802-44.0883179,66.8903809   c-14.3295288,24.4967041-35.0358887,41.0440674-64.3728638,39.364563   c25.5234985,18.8261108,51.5129395,33.1948242,83.4334106,36.8834229   c-29.5736084,27.1965942-54.0579224,57.0570068-76.1834106,91.4356079c14.8005371,0,28.0896606,0,42.5136719,0   c-14.6390381,20.4101562-28.9644165,39.8616333-39.4690552,62.8778687   c-10.8383789,23.7473755-18.0180664,48.8220215-22.8643799,74.4302979   c-2.6577759,14.0439453-4.7441406,28.1856689-6.9158936,42.3104858c-1.8915405,12.302002-3.1759033,25.013916-7.5499268,36.7529907   c-3.4196777,9.1777954-8.6644287,17.6074829-15.7987671,24.3604126c-3.4020996,3.2202148-7.1824341,6.0308838-11.201416,8.4333496   c-2.4735107,1.4785767-11.6051636,3.9985962-12.168335,6.9428711c25.1999512,15.2644043,60.664978,8.7590332,85.0210571-4.9140015   c1.6289062,4.0561523,0.3345337,9.7785645,0.3463135,14.1082153c0.0146484,5.3655396,0.2236938,10.7295532,0.6538086,16.078125   c0.899292,11.1827393,2.7483521,22.2932129,5.6409302,33.135376c5.7788696,21.6613159,15.7836304,42.007019,29.1273193,60.005127   c14.3710938,19.3840332,36.8821411,35.9084473,45.5458984,58.9382935   c8.9628296,23.824707-2.4544067,52.8792725-8.2036133,76.2936401   c25.5427246-22.5179443,49.7302856-45.6478882,55.7037354-82.4185181   c33.7709961,46.4384766,61.538208,94.6132812,84.1679077,146.8616333   c6.489502-18.5306396,10.0883179-36.8717651,13.9912109-55.1954346   c13.3516846,29.0188599,21.178833,58.4203491,8.4319458,89.9304199   c25.50354-20.2659302,40.147522-46.4095459,43.8087158-79.7180786   c21.6867065,17.6373291,45.1362915,34.3432617,64.3971558,54.6968994   c8.8580933,9.3607788,17.0838623,19.8627319,22.1690674,31.7957764c5.5657959,13.0605469,5.6903687,24.9641724,1.4537354,38.40979   c20.8338623-12.6325684,30.6102295-32.5350342,36.7076416-56.6756592   c3.1226196,12.5549316,7.3475952,24.7949829,14.6934204,35.5438232   c5.1328735,7.5106201,13.7348022,19.1924438,23.5953369,20.5432739   c-14.5004883-24.7935181,6.6471558-53.6452637,23.3717651-71.0938721   c18.8452759-19.6609497,40.7294922-36.916626,62.6053467-53.0670776   c3.041748,33.4541626,18.1223755,59.569397,43.5782471,80.0949097   c-12.2451172-30.501709-5.1374512-64.1977539,9.1106567-92.7380981   c3.1773682,20.0897827,7.8242798,38.4244995,13.9384766,57.7349243   c22.9501953-52.5114136,50.026001-101.081665,83.9604492-146.7130737   c6.7441406,36.6519775,30.9734497,59.744812,55.8798828,82.4210205   c-4.6688232-23.9017334-16.3359985-51.2281494-8.4088135-75.5680542   c3.8377686-11.7838135,12.6644287-21.1272583,20.5411987-30.4022827   c7.6550293-9.013916,15.7996826-17.4888916,22.803772-27.0532837c12.855896-17.5553589,22.895874-37.1306763,29.1398926-57.9960938   c3.2437134-10.8393555,5.4646606-21.9703369,6.7103882-33.2140503c0.6195679-5.5923462,0.9960327-11.2068481,1.1481323-16.8311768   c0.0964355-3.5683594-1.9758911-15.0708618,0.5845337-17.5933228   c33.3745728,15.3004761,68.9158325,17.0698853,84.7837524,4.1068726   C978.9237671,585.0115356,969.7355347,580.6444702,962.3453979,572.3109741z M822.0352783,151.0543823   c6.194519,14.0969849,10.8991089,28.8487549,16.5557861,44.0292969   c-10.2044067-2.3140869-18.0767212-7.09552-25.5598145-12.6677246c-1.737854-1.2940674-2.2279053-3.2025146-2.8621826-5.1237183   c-5.2689209-15.9591675-12.9022827-30.5526123-25.3901367-42.1196899   c-24.2867432-22.4959106-59.786377-25.612793-90.9161377-8.2948608   c-16.5643921,9.2149658-29.1917114,22.8202515-41.6495972,36.6616821c-1.30896,1.4542847-2.2817383,3.2907715-4.8700562,4.3720093   c-0.12146-4.0270996,0.616272-7.6315308,1.482666-11.1897583c8.3737793-34.390564,37.4212036-59.6945801,73.0644531-63.6953735   C766.2386475,88.0483398,803.7842407,109.5195923,822.0352783,151.0543823z M657.7224731,596.4354858   c-1.3757935-1.958252-0.3865967-3.9180298-0.6219482-7.0509033c7.8271484,3.5545044,12.4207764,9.4348755,17.1209106,15.1853638   C669.0845337,600.9522705,663.6702881,598.1054077,657.7224731,596.4354858z M684.7576904,652.5493164   c-6.2973022-9.7300415-13.2203979-19.0441284-20.418457-28.1644287c-3.1989746-4.0531616-1.1087036-8.7897949-1.1674805-13.4454346   C676.2824707,621.6262207,680.9501343,636.8067017,684.7576904,652.5493164z M652.0633545,507.892334   c6.3789673-19.1100464,24.7384644-28.6188354,35.1218872-44.4868164   C679.7667236,481.609375,667.2459717,495.8201294,652.0633545,507.892334z M660.6242676,573.5526733   c-3.8358154-18.5110474,4.31427-34.2388916,15.2265625-48.6257324   c12.0391235-15.8724365,26.4147949-29.8435059,39.3867188-44.9306641   c11.4602661-13.3290405,21.434021-27.49823,26.4827881-44.5404053c2.3973999-8.0924072,3.7014771-16.4888306,3.8787842-24.9281006   c0.2001343-9.5212402-1.9967651-18.3878174-2.8239746-27.769104c18.9586792,35.0950317,16.9420166,74.9174194-8.013855,106.3800659   c-12.1727295,15.3464355-27.5471802,27.2705078-42.748291,39.4064941   C676.2423706,541.1357422,667.4454956,554.7346191,660.6242676,573.5526733z M713.1586304,325.2752075   c23.6046753,44.9009399,15.4075928,87.5120239-8.4024658,129.1099243   c1.4180298-13.3433228,1.321228-26.5145264-3.0409546-40.2846069   c-1.7608032,16.5095215-8.0029907,32.1188354-18.6940308,44.8771362   c-8.0463867,9.6021729-24.3892822,26.5054321-38.1605835,25.6796265   c-8.4391479-0.5061035-11.6466064-9.2520752-14.1437988-16.0724487   c-3.6297607-9.9135742-6.0598145-20.3067627-10.5407104-29.899292c-4.28479-9.1727295-9.9309082-16.5032349-10.1627808-27.0891724   c-0.2268677-10.3567505,3.6030273-20.3163452,7.7108765-29.6427612   c23.6193237,0.4321899,42.8310547-7.022644,52.5164795-30.2672729c5.9613647-0.3844604,11.383667-0.3171387,17.4628296,0.2967529   c-2.5181885,24.005188-20.5830078,35.2178345-38.5583496,47.4228516   c15.3265991-1.3167114,29.9053955-9.6129761,39.7689819-21.2700195   c4.7418213-5.6040039,7.9810181-11.8169556,10.2235107-18.7728882c2.0929565-6.4924316,3.9934692-13.1656494,11.3954468-15.1532593   c-0.6929932-3.2700806-14.539978-1.1231079-17.4528198-1.2003784c-7.8327026-0.2078857-15.6438599-0.9124756-23.4194336-1.8566895   c-14.53125-1.7646484-29.319397-5.7075195-44.0258789-4.3525391c-12.0980835,1.1146851-20.9467773,6.6021118-29.0198975,15.3314209   c-9.5457153,10.3215942-19.7669678,20.1563721-27.8267822,31.7388916   c-6.2124023-19.9390869-7.7718506-38.6049805,8.7156372-54.9348145   c-10.8277588,0.8900757-20.5311279,8.9850464-24.5372925,18.9030151   c-4.9526978,12.2611694,2.1544189,25.9837036,5.4579468,37.8614502   c4.2431641,15.2561035,8.223938,30.5869141,11.8031006,46.0130005c3.3640137,14.4988403,5.489624,29.482666,9.9544067,43.6958008   c-0.7757568-16.5080566-1.6411133-33.0122681-2.3008423-49.5256348   c-0.5325928-13.3317261-1.2044067-30.1292725,10.9568481-38.9377441   c6.8234863,16.4093628,14.6864014,32.7105103,20.2657471,49.5879517   c5.4703979,16.5480957,5.0176392,34.1243896,12.0678711,50.2957764c3.4244385,7.8547974,8.2747192,14.5645142,8.567749,23.4441528   c0.2896729,8.7802734-2.9230347,17.2634277-7.3010254,24.7370605   c-7.7928467,13.3029785-19.6092529,22.5037842-32.4562988,30.5682373   c18.7108765-2.4899902,34.9847412-13.3731689,50.4350586-23.3961792c-1.269165,8.0721436-0.8953247,15.1051636-1.1618652,22.461853   c-27.9840088,12.9494629-57.1000366,22.4824829-86.7975464,30.524292   c30.4257202,0.1622314,60.036438-4.4616089,88.918457-14.5345459c2.196106,5.0136719,4.2770386,9.7645874,6.5179443,14.8808594   c-21.7474976,0.9064331-41.6453857,8.4776001-61.8815308,15.5414429c8.3044434,0,16.6074219-0.154541,24.9111938-0.2559204   c6.994812-0.0853882,16.0031738-1.6781616,22.5605469,1.2067871c12.6885376,5.5823364,23.3901978,17.9421997,31.9443359,28.4157104   c-27.3770752-17.1606445-56.8674316-19.3815308-88.826355-13.2029419   c16.6087646,2.9835815,33.6381836,4.5010986,48.7919312,12.6744995   c-10.6569824,16.9673462-24.7894897,29.3640137-46.0383301,25.2506714   c-24.6071777-4.7634277-43.9718018-23.4749146-68.6121216-28.6304932   c0.8884277-7.6161499-1.2962646-15.4619751,0.6817017-22.9755859c2.1151733-8.034729,8.6572876-13.8553467,10.9744873-22.1352539   c1.8712158-6.6864014,3.8635864-12.7550049,9.7932739-16.9730225c6.4550171-4.5917358,15.1085205-5.3582764,22.3419189-8.3139648   c7.4662476-3.0507812,14.9602661-7.1546021,20.9157715-12.6618042c6.0418701-5.5869751,7.5180664-11.1348267,8.5861206-18.9713745   c1.1934204-8.7562256,6.6431274-16.4855957,9.1620483-24.9476318c2.7129517-9.1138916,3.7319336-18.6691284,2.8539429-28.1459961   c-3.7026978,15.7894897-13.5908813,27.625061-24.2380371,39.1830444c-24.5625-8.1886597-48.3747559,7.2359009-73.0072021,6.880249   c-23.5604858-0.3401489-46.4627686-14.8875122-70.0994263-6.836853   c-10.5726318-12.0717773-21.182312-23.6434326-23.5869751-40.5439453   c-4.8412476,13.2288818,1.4402466,29.9950562,6.5321045,42.1515503c1.7783203,4.2456055,3.4485474,8.5397339,4.5374756,13.0206909   c1.0078125,4.1470337,0.9961548,8.4920654,3.2005615,12.2562866c4.1091309,7.0166016,12.8049927,12.1310425,19.8272705,15.7455444   c14.1094971,7.2625122,31.3665771,6.5842285,37.3201294,23.8024292   c2.7977905,8.0914307,5.5057373,14.7109985,10.1911011,21.9112549c4.7160034,7.2471313,2.4647827,18.9650269,2.4647827,27.4146118   c-22.4076538,4.798584-40.244873,20.6452026-61.9689331,27.2716675   c-22.557312,6.8806152-40.3339844-3.8947144-51.546936-23.5852661   c14.9890747-7.3777466,30.7692871-10.9082642,47.696106-12.1886597   c-20.687561-9.0238037-60.012207-3.1028442-89.2954712,12.8250732   c8.1726685-10.1799927,20.0466919-24.2578125,32.762146-28.8540649c6.1168213-2.2110596,14.0673828-0.9576416,20.4403687-0.9577026   c8.8244629,0,17.6489258,0.000061,26.4733276,0.000061c-19.6392212-6.9497681-39.1558838-14.4078369-60.5533447-15.5662231   c2.0890503-4.9515381,4.052063-9.6043701,6.2357788-14.7802124c28.3187866,10.5854492,57.7684326,15.0458374,88.05896,14.7288818   c-29.6348267-8.0864868-58.7368164-17.5492554-87.1481934-30.6575928c0-7.1757812,0-14.2188721,0-22.0748291   c14.4942017,10.2674561,29.6328125,18.9849243,47.8517456,22.7233276   c-2.9047241-5.3053589-11.7295532-8.77948-16.2229004-12.8915405   c-6.2113647-5.6841431-11.6373291-12.4276123-15.5645752-19.8908691   c-7.7344971-14.6984253-6.5205688-30.2442017,1.7409668-44.43573c4.0335083-6.928772,7.083313-12.0925903,7.1956787-20.2976074   c0.1328735-9.708313,2.175354-18.9178467,5.2709351-28.1203003c6.017395-17.8886108,14.1203613-35.2141724,21.3407593-52.6426392   c12.3808594,10.1691895,11.6856079,24.461731,10.9177246,39.0618896   c-0.8726807,16.5926514-2.046814,33.1662598-2.8939209,49.7614746c3.4257202-5.3746948,3.5706787-13.2225952,4.8197021-19.3288574   c1.597229-7.8085327,3.3012085-15.5953369,5.1034546-23.3590088c3.7160034-16.0074463,7.8530273-31.9160767,12.3376465-47.7249756   c3.3375854-11.7658081,9.5611572-24.65271,5.432251-36.9653931c-3.5679932-10.6401978-13.2935181-17.5144043-23.9633179-19.8756104   c5.6911011,7.5087891,11.2915039,15.4570923,12.461853,25.0542603c1.2645874,10.369812-2.0430908,20.6505737-3.809021,30.7599487   c-7.815918-11.269165-18.0266724-21.0910645-27.213562-31.2381592   c-7.6535645-8.4534302-17.3321533-14.4686279-28.7324219-16.1311035   c-13.3253784-1.9431763-27.0186768,2.100647-40.1782227,3.8012695   c-15.2873535,1.9755859-30.7559814,2.9992065-46.1384888,1.5391235c0.6646118,3.0646973,3.4241943,3.092041,5.6442871,5.281189   c2.3170166,2.2845459,3.6365967,5.3004761,4.6973267,8.3197021c2.3982544,6.8262329,4.1537476,13.4199829,8.3905029,19.4437256   c9.4918823,13.4952393,25.9527588,19.4255981,41.1444092,24.0172119   c-16.3170166-12.4768066-34.3104248-23.4115601-36.671814-46.9471436c5.6557617-1.3770142,11.2716675-0.7849731,17.4118042-1.09729   c9.4241333,22.5504761,27.2879028,31.4711304,51.6361084,30.3047485   c3.5479736,8.5231934,7.4951782,17.2355347,8.2290039,26.5562744c0.8572998,10.8890381-4.2091675,18.6628418-8.6825562,28.0873413   c-4.6049194,9.7015381-7.6091309,19.9857788-11.06427,30.1209717c-2.4266968,7.1184082-5.720459,17.0236206-14.4243164,18.1243896   c-7.3338013,0.9274292-14.6312866-4.7961426-20.2650757-8.7137451c-6.828125-4.7481079-13.133606-10.2858887-18.4853516-16.6643066   c-10.3876343-12.3806152-16.5422974-27.5678101-18.5040283-43.5604248   c-3.477356,4.8755493-4.5438232,15.3701782-3.4470215,38.4030151   c-17.5131836-26.2675171-35.0072021-84.1536865-7.0269165-129.0418701   c-15.1081543,5.7583008-32.5623169,30.3007202-49.9682007,69.2446289   c2.7401123-33.8799438,10.2546387-66.2545776,31.7245483-93.5215454   c9.4553223-12.0083618,21.0755615-22.1849976,34.1013184-30.1643677   c13.7401733-8.4169922,25.8319092-16.2871704,33.0797119-31.3201294   c3.2114868-6.6610718,5.1971436-13.8416138,6.2758789-21.1436768c1.1224976-7.5979614,1.8807983-14.5726929,7.5234375-20.3114014   c5.3667603-5.4581299,13.043335-8.7943726,19.8260498-12.1067505c8.770874-4.2833252,17.9008179-7.8706665,27.4130859-10.1243286   c6.4523315-1.5286865,14.0429688-3.0498047,19.8289185,1.2539062c6.2692871,4.663208,9.2069092,15.1583862,13.9001465,21.4060669   c10.0072632,13.3218384,23.569458,23.2896729,37.4161987,32.2872314   c6.8085938,4.4242554,14.5125732,7.8867798,18.5443115,15.3267822c4.4258423,8.1673584,3.8203125,18.5210571,4.5628052,27.4881592   c1.9210815,23.2002563,4.4491577,46.3446655,6.6564941,69.5182495c3.7098999-11.5182495,3.2360229-25.3490601,4.4209595-37.3313599   c1.4028931-14.1861572,2.7306519-28.3797607,3.9987183-42.5786133c0.5240479-5.8673096-0.1334839-13.2749023,3.2957764-18.4020386   c3.145813-4.7034302,9.2424316-8.0307617,13.7837524-11.2437134c9.8776855-6.9884033,19.9315186-13.5645142,28.7875366-21.8739014   c8.4921875-7.9680176,15.2443848-16.9608765,21.6429443-26.6287842   c4.0492554-6.1182861,8.1219482-11.1737671,15.9649048-11.0189819   c21.7622681,0.4296265,44.7493286,14.156189,61.9371338,26.2818604   c3.4407349,18.9801636,5.5560303,37.8098145,19.0894165,52.6720581   c12.7492065,14.0010376,31.4024048,20.774353,45.2109985,33.795166   c28.4381714,26.815979,43.7944336,67.3947754,43.1246948,106.1837769   C751.5570068,365.5100708,736.5609741,342.5371704,713.1586304,325.2752075z M640.6288452,346.9430542   c1.6964722-0.5997314,3.078186,0.2376099,4.1932373,0.7297974c3.9128418,4.4858398,0.600647,14.4029541-6.0435181,19.2278442   c-9.550354,6.9356079-24.125061,3.2717285-31.3024902-8.2481079c1.8456421-1.1340332,3.3759155-2.0742798,4.824585-2.9644165   C627.7269897,364.3638916,633.8840332,362.4376221,640.6288452,346.9430542z M623.6572876,345.0385132   c4.6532593-0.9113159,5.9232178,6.3031616,0.9460449,6.6481323   C620.2895508,351.9646606,619.6002197,345.8330078,623.6572876,345.0385132z M498.3491821,595.6607056   c-13.9614868-2.6294556-11.4573975-23.0033569-17.0447388-32.6724243   c-7.4677734-12.9232178-22.4104004-15.5278931-35.5588379-19.6569824   c-5.4781494,2.1467896-13.3279419,6.0562134-16.0838623-2.1008301c-2.802063-8.2935791,8.4284668-11.7613525,14.6100464-11.9890747   c9.0647583-0.3339233,17.3522339,3.2940063,25.5379028,6.6548462c9.3093262,3.8221436,19.0021362,6.312561,29.1053467,6.5369873   c9.4043579,0.2089233,18.71698-1.5042725,27.5272217-4.7652588c8.7409058-3.2353516,16.5006104-7.4538574,26.0037842-8.0734863   c6.5758667-0.428772,19.1442261,1.2703857,18.4603271,10.4490967c-0.7061157,9.4782715-10.9028931,6.3372803-16.0634155,3.3389282   c-13.777771,4.0629272-29.6409912,7.3422241-36.3963013,21.5231323   C514.0767822,574.0791016,514.331604,598.6708984,498.3491821,595.6607056z M258.7834473,436.0801392   c5.3567505,17.5155029,15.8474731,31.87854,27.8483887,45.4431763   c22.7588501,25.7243042,56.7558594,52.9343262,53.5310669,90.6398926   c-2.8810425-1.5631714-3.2355347-6.6922607-4.5167847-9.7018433c-1.7666016-4.1495361-3.9806519-8.1043701-6.5343018-11.8196411   c-4.895813-7.1230469-11.0310669-13.2861328-17.5883789-18.8776245   c-15.8843384-13.5449219-32.456604-25.6296997-45.7596436-41.9559937   c-25.9338379-31.8274536-26.9716797-72.7982178-7.8058472-108.328064   C253.1386719,399.4232178,253.3457642,418.3001099,258.7834473,436.0801392z M312.8688354,461.329895   c9.9571533,17.1741333,29.2347412,27.0419312,37.0328369,47.197937   C336.5637207,500.8693848,316.9470825,475.8452759,312.8688354,461.329895z M342.9387817,589.8897705   c1.2203369,2.1191406,0.8066406,3.8822021,0.6130981,6.1158447c-5.2955933,2.0848999-10.6860352,4.4846191-15.7304688,7.7662964   C331.6856079,597.8696899,336.5282593,593.0928955,342.9387817,589.8897705z M337.7538452,609.8093262   c1.4866333,17.3383179-13.9413452,29.1073608-21.9962769,42.9523315   C319.342041,636.8076782,324.2121582,621.5672607,337.7538452,609.8093262z M392.4354858,358.9331665   c-10.8001099,17.9795532-42.1669922,13.1134644-39.0871582-10.4888916c2.4179688-1.1801758,4.5087891-0.975647,6.5561523-0.2867432   c7.5722046,13.8426514,14.0320435,15.6669922,27.1627808,7.5604248   C388.7909546,356.7503662,390.6129761,357.8416138,392.4354858,358.9331665z M293.8034058,250.2111816   c-8.0515137-0.9173584-17.1438599-2.171875-22.9434814-8.4864502c-6.3849487-6.9517822-3.2661743-15.6303711-2.5256348-23.9478149   c-4.5688477,2.9839478-7.1296997,7.2611084-10.8726807,10.9252319   c-8.5680542-13.9596558,5.2558594-44.8421631,22.2598267-45.0350952   c15.8283691-0.1796265,34.8856812,15.8143311,42.6866455,28.5960083   c-17.5106201,1.3510742-33.9716187,5.4291992-48.2769775,16.7961426   C278.4320679,238.7001343,285.8319092,244.664856,293.8034058,250.2111816z M260.3546143,165.7629395   c-18.3126831,2.531311-32.769104,12.7741089-43.1004639,27.8469238c-2.156311,3.1459351-5.8237915,7.3681641-6.2833862,11.2454224   c-0.5175781,4.3661499,2.4790039,9.8322754,4.0448608,13.8062744c3.769043,9.5654297,8.5895386,19.1397095,14.6112061,27.4978027   c11.1314087,15.4504395,28.62146,20.6369019,46.3289795,24.6328735   c-9.996582,8.4880371-18.1605225,17.2366333-25.0565186,27.5089111   c-9.4302979-3.3899536-19.0211792-7.1748657-26.9598999-13.4425659   c-9.1122437-7.1941528-13.7989502-17.2174072-18.4342651-27.5922241   c-5.2767334-11.8103027-9.9905396-24.0717163-13.4105835-36.5584106   c-3.2325439-11.8024292,5.0446167-21.4573364,11.8858032-30.5940552   c14.3099976-19.1115112,32.2426147-33.8853149,56.9924316-33.7775879   c12.0808105,0.0525513,24.1738892,1.6140747,35.703186,5.302124c9.9476318,3.1820068,23.107605,8.1610718,30.02948,16.3953247   C305.4349976,170.2075806,283.3777466,162.5805664,260.3546143,165.7629395z M289.2225342,73.6040649   c48.7221069,4.3203735,103.0758667,21.8275757,119.8842773,73.3137817   C377.0288696,109.4522705,338.6266479,82.512207,289.2225342,73.6040649z M591.8560791,147.2076416   c3.7975464-35.477478,72.1873169-78.2498779,116.0144653-72.3349609   C659.9335938,84.4837646,622.366272,110.1833496,591.8560791,147.2076416z M706.2313232,249.892334   c8.5167847-4.7425537,14.996521-11.4312744,20.3695068-20.3931885   c-14.0605469-12.0298462-30.5905762-16.2573853-48.2794189-17.0429077   c-2.3477173-3.5667114,15.1807251-16.8953857,17.909729-18.8259277   c7.0236816-4.9686279,16.9607544-10.9500732,25.9320068-10.2089844   c18.0964966,1.4949951,25.0913696,30.1620483,21.1485596,44.3495483   c-3.760376-3.4100342-7.3282471-6.6455078-11.1366577-10.0991821   C734.1923828,242.0881348,730.2757568,247.0184326,706.2313232,249.892334z M750.220459,297.7392578   c-6.999939-9.6943359-14.9969482-18.5791626-24.9334106-26.7380981   c9.9468384-3.0961914,20.2025146-4.9646606,29.2667236-10.3696899c8.173584-4.8739014,14.2766724-11.7009277,19.2797241-19.7139282   c5.6607666-9.0664062,10.5373535-18.9107056,13.7441406-29.1303711c2.9147949-9.2890625-2.6668091-16.4957886-8.487793-23.5204468   c-26.9204102-32.4873657-70.5913086-24.8295898-105.2058716-10.3635864   c19.1854858-16.0871582,44.7166138-22.5621948,69.3776245-21.5081787   c23.8864136,1.020874,40.9144287,17.0465088,54.4516602,35.5529175   c7.1356201,9.7547607,13.7680664,18.7333984,9.6260376,31.1038818   c-4.204895,12.5584717-9.2596436,24.8981323-14.2318115,37.1680298   C785.1148071,279.9435425,770.5181274,291.7752686,750.220459,297.7392578z M289.8329468,52.3087158   c13.204895-9.449585,57.8587646-10.5568848,84.3639526-2.2683105c28.2160645,8.8235474,51.9181519,24.447937,71.8851929,48.1811523   c2.2409058-26.611084-3.5523682-49.5566406-18.6309814-70.2290649   c15.5338135-1.0245361,38.3895874,9.2540894,48.5853882,21.9796143   c-10.0352783-6.1299438-20.7487793-9.7390747-34.2460327-9.3704834c4.4172363,2.4372559,7.5160522,4.0993042,10.5702515,5.8397827   c21.0613403,12.0025635,31.4535522,30.9688721,36.0446777,54.0957642   c4.121521,20.7612915,6.6147461,41.7479858,9.7688599,62.6444702c0.3347168,2.2179565,0.9279175,4.3969116,1.8868408,6.5601807   c2.878418-7.4416504,3.5108643-15.210022,4.5864258-22.8556519c2.6152954-18.5916138,5.3701782-37.1308594,9.8989868-55.395874   c5.3508911-21.5805054,18.3364868-36.8620605,37.5046997-47.3768311c1.5740967-0.8635254,3.1347046-1.7514038,4.9129028-2.7461548   c-8.4813843-1.6447754-16.2852173,0.4801636-33.9500732,9.401001   c14.1744995-15.3700562,30.788147-21.9093018,51.0097046-23.4210815   c-16.428833,21.0770264-22.8525391,44.1859131-20.8648071,71.1586304   c19.7772827-23.0370483,42.8948975-39.3797607,71.0360107-48.2960205   c28.4669189-9.0194092,56.6043701-7.7408447,84.7115479,1.8046875   c-17.5779419-1.6339722-33.651123,2.4972534-48.3288574,12.0878296   c21.7302856-3.8225708,42.8091431-2.1079712,63.4628906,5.0619507c-32.079895-3.6782227-63.3563843-0.8191528-93.3267212,11.727417   c-40.9136353,17.1276245-66.371582,48.0317993-79.272583,89.9557495c-0.5087891,1.6535645-0.336853,3.6903076-1.9581909,4.9550171   c-9.1310425-10.9777832-4.6026001-32.3622437,11.3152466-55.463623   c-22.0949707,19.4776611-37.4279785,42.9165649-42.3255005,72.0928345   c-2.0621948-4.2888794-3.1561279-13.5037842-2.5456543-22.9971313c0.5215454-8.1098022,1.9301147-16.0875854,3.6124878-24.0571289   c-10.8731079,16.5761108-14.7314453,35.5755615-19.1650391,54.5747681   c-4.4788818-18.9603271-8.7769775-37.7979126-19.1963501-54.5415039   c2.9765015,16.0882568,5.0831909,32.0942993,0.0809937,48.9388428   c-3.8337402-31.0905151-19.5057983-54.4679565-41.5706787-74.3065186   c11.3729858,16.9614258,20.7359619,34.2759399,12.4678345,55.8652344c-2.857605-1.0675659-2.4353638-3.0880737-2.8514404-4.4729614   c-16.3105469-54.2908936-52.9559937-86.5216064-107.5721436-99.2123413   c-19.8965454-4.6231689-40.0683594-5.3048096-60.3629761-3.5255127c-0.8616333,0.0755615-1.7357178,0.0096436-2.6187134-0.2936401   c19.6539917-7.0432739,39.7498169-7.6586914,60.348877-3.8129272   C332.1587524,56.524231,312.1403809,51.6115112,289.8329468,52.3087158z M190.3062134,130.1595459   c35.6998901-49.182373,111.3845215-50.8807983,147.2988281-3.1314087   c7.8300171,10.4102783,12.506958,22.1339722,14.7241821,34.8831787c0.3208008,1.8446045,0.9814453,3.8412476,1.0317383,4.4421387   c-6.6481323-5.8764648-13.5507202-11.4922485-19.8925171-17.6826172   c-14.0318604-13.6968994-29.5800171-24.8795166-48.7148438-30.1638184   c-35.0298462-9.6740112-68.805542,5.8505249-86.3813477,39.6160889c-2.3451538,4.5053711-4.7573242,9.1620483-5.947998,14.0392456   c-1.8548584,7.5980225-6.5966187,12.2208862-13.0053101,15.8692627   c-5.4048462,3.0768433-10.9588623,5.7089233-18.2115479,7.6755371   C170.6436157,172.935791,176.1084595,149.7192993,190.3062134,130.1595459z M132.4901123,517.9780884   c-18.7744751,22.0119629-38.5716553,41.0914307-64.9336548,51.843689   c-1.5411987-2.8688965,3.7182617-9.8563232,5.0584106-13.2097778c2.2420654-5.6102905,3.9030762-11.4428101,5.2280273-17.3322754   c2.6732788-11.8834229,3.9026489-24.0344849,5.5481567-36.0861206   c3.3887939-24.8192139,7.8422241-49.6322632,15.9980469-73.3792725   c7.5957642-22.1160889,18.5623169-43.2017212,32.005188-62.3267822   c12.5186157-17.8100586,28.2147827-36.427124,46.6153564-48.4063721   c-18.5167847-6.6577759-39.1296997-5.9990845-58.5144653-6.9223022   c17.4286499-14.5697632,34.2209473-28.7584229,49.9078979-44.3734131   c-8.0931396,10.7987671-16.1862793,21.5975952-24.8323364,33.1341553   c19.8602905-0.1928101,39.0944214,1.6196899,58.8413086,7.1254272   c-11.2611694,9.6503296-22.0263672,18.8756714-32.7915649,28.1009521   c21.0158691-9.2194824,42.8182373-13.4110107,66.1144409-12.5979614   c-33.680481,20.6383057-61.2095337,47.0426636-80.5924683,81.5273438   c17.6054688-20.4345093,39.0632324-35.0238037,64.897644-43.7327881c0.5309448,4.7315674-0.0620728,8.9693604-1.1467896,12.9942627   c-43.4373779,31.5033569-71.2407227,69.6082764-80.2296753,110.4016113   c18.2762451-34.105896,43.493103-67.3911743,80.6948242-82.333313c0,13.3540649,0,25.9855957,0,39.5189819   c-39.269165,26.0343018-65.7281494,65.6295776-76.9105835,111.1600952   c-12.7084961,51.7440796-5.5671387,104.4272461,14.6256104,153.2523193   C130.1901245,674.3532104,105.005249,610.2064819,132.4901123,517.9780884z M302.7435913,850.8082886   c-23.7717896-55.9464722-54.2258911-107.4850464-96.1509399-151.928833   c1.9210205,20.7931519-3.1411133,40.4203491-7.9956665,61.0114746c-3.2929077-4.2524414-3.0516968-12.8696899-4.4412231-17.9902344   c-1.9049072-7.0198364-4.3543091-13.8747559-6.8358154-20.706665c-4.838501-13.3212891-9.3835449-26.6662598-12.6636353-40.4716187   c-6.4573975-27.1783447-8.9066772-55.6729126-5.6314697-83.4817505c2.4986572-21.2155151,9.5880127-41.7735596,21.75177-59.4124756   c11.6369019-16.8746948,30.076416-35.6939087,49.4020386-43.4844971c2.4146118,1.2844238,4.1777344,4.2122192,5.93573,6.2698975   c-46.5373535,50.8928223-58.496521,110.0280151-41.8427124,175.9220581   c-8.2147217-64.3214111,7.2545166-119.1610718,62.3075562-158.5252075c2.8884277,1.727417,4.6516724,3.4695435,6.3912354,5.756897   c-22.2542114,24.668457-38.1726074,52.4632568-42.6968384,85.90448   c9.9708252-24.7444458,24.5983276-45.9865723,46.0170288-62.2592163   c-36.8147583,38.2515869-41.9887695,99.3493042-26.7837524,148.1227417   c8.3618164,26.8223267,22.3675537,51.6447144,33.5234985,77.3441772   c5.6188965,12.9439087,10.241333,26.2452393,13.7241211,39.9248657c1.619751,6.3620605,3.0067749,12.7835693,4.1808472,19.2424927   C301.7232666,836.3811646,305.364624,846.9796143,302.7435913,850.8082886z M330.3973999,773.8174438   c10.859375,30.9033203,22.6647949,61.2581177,19.652832,94.727478   c-5.2971191-26.6679688-16.5180054-51.6350098-29.9266357-75.1443481   c-13.6503296-23.9330444-29.0394287-46.9710693-38.4849854-73.031189   c-9.0341797-24.9252319-12.2954712-51.4940796-8.4178467-77.7872314   c1.8395996-12.4738159,5.2792358-24.7270508,10.4869995-36.2208252c2.456604-5.421936,5.2803345-10.6743774,8.4562378-15.7092285   c2.854248-4.5249634,6.3796387-11.7346191,11.6514893-13.8449097   c-13.513855,26.0218506-20.3320312,52.762146-17.8345947,81.5231934   c5.690918-24.4155273,15.2112427-46.8141479,33.0614014-64.9894409   c-28.4351807,48.5307007-21.5804443,111.9298096,2.3799438,160.9730835   c-5.4404297-18.4821777-10.1897583-36.987854-11.2553101-56.3079834   c-0.5211792-9.4489746-0.6328735-19.2892456,0.6795044-28.6854858c1.145752-8.2033691,7.800354-9.1802979,14.6932983-12.1854858   c-1.6283569,23.4857788,1.1349487,45.8146362,8.0280151,67.6642456   c-1.8447266-24.2260742-2.2583008-48.2824097,5.4488525-71.3745117c1.7857666-1.6239014,3.4460449-2.008667,5.7019653-1.4547729   c-3.7766113,42.0252686,0.637085,82.9546509,16.6799316,122.2296753   c16.5718994,40.5701904,43.8938599,73.5170898,71.3221436,107.0916138   C390.3625488,853.3342285,357.7994385,816.0923462,330.3973999,773.8174438z M478.1264648,937.7375488   c-2.8279419-4.0862427-2.807312-11.2921753-4.206604-16.026001c-1.3731079-4.6450195-3.0997925-9.1854858-5.1471558-13.5750122   c-4.4152222-9.4661865-10.328186-18.1858521-17.1436768-26.0834961   c-15.3989258-17.8441772-32.4923096-33.9696045-46.848999-52.7600708   c-26.7995605-35.0759277-45.4314575-77.8751831-45.4314575-122.5661011   c4.0535278,30.444397,16.3761597,58.902771,33.9049072,83.973999   c8.9126587,12.7477417,18.9812012,24.7948608,29.9388428,35.8337402   c11.65979,11.7462158,24.4013062,22.6791992,32.9389038,37.0755615   c-4.2425537-15.472168-17.112854-27.7215576-26.1832275-40.5062256   c-8.5778809-12.0904541-20.0098267-27.8599243-21.3148804-43.0927734   c14.1609497,28.0690918,40.3201294,46.9194946,56.5822754,73.3991089   C480.4244995,878.175293,484.6104736,909.4917603,478.1264648,937.7375488z M503.8468018,817.9088745   c7.4904785-25.1705933,37.4243164-44.6020508,27.4752197-73.0147705   c0.0886841,10.7918091-1.9887085,20.8416138-9.8273315,30.0750732c-0.9502563-7.3760376,0.6577759-14.2544556-1.8057861-21.3699341   c-3.2183228,6.3041382-8.3689575,11.3323364-11.7315063,17.5344849c-3.9693604,7.3212891-5.192749,15.671814-7.1954346,23.6523438   c-2.0685425-14.765564-8.6245117-27.3479004-18.138916-38.7967529c-3.5269165,9.2313232,2.9048462,18.2224121,1.2749023,27.5770264   c-10.2265625-6.5377197-14.7368164-19.7808228-13.5441895-39.0386963   c-7.6643677,12.5164185-5.4335938,27.6295166,6.3358765,45.1808472   c-10.7521973-9.7741699-22.5543213-18.6691284-31.3561401-30.3682861   c-8.7811279-11.6716309-9.6323242-20.9875488-6.4718628-35.024292   c-7.8960571,10.0133057-10.5674438,19.6824341-5.9302979,31.2682495c-4.4661865-1.8753662-5.5658569-5.6992188-7.9574585-8.0877686   c-1.5561523-0.7084961-0.7615967,1.5391235-2.369812,1.1328125c-6.6392212-7.9271851-7.2228394-17.4608154-5.3249512-28.8651733   c-9.0291748,8.9996948-11.0534668,18.6218872-9.1342163,29.6263428   c-13.4960938-15.1015015-12.5567627-33.9968872-14.3182983-52.3723755   c17.6098022-4.678833,33.2592163-14.3282471,50.206543-20.7418823c16.9768677-6.4248657,35.8427734-8.4910889,53.8980713-8.9428101   c18.3745728-0.4597778,36.7998657,1.739624,54.3353882,7.3534546c18.1697998,5.8169556,34.3973389,18.348877,53.3632812,21.4302368   c1.4290161,15.6686401-3.8370361,46.7356567-13.3613281,52.5606689c0.7723999-10.1234131-0.3875122-19.463623-8.6010742-27.7132568   c-0.1549072,10.2298584,1.1514282,20.0975342-5.9634399,27.8456421c-1.2755737-0.4431763-0.4451904-1.706665-1.1960449-2.4935303   c-2.5327148,2.9355469-5.0621338,5.8671875-7.5915527,8.7988281c2.3067017-10.7999878-0.0645752-20.2427979-6.8661499-28.8153687   c5.7166748,18.3093262-5.5493164,32.4136353-17.5532227,44.8676147   C529.9661865,786.2433472,516.9057617,801.5826416,503.8468018,817.9088745z M550.1617432,880.5755005   c-13.6372681,14.7005005-21.9859619,32.0281982-25.6738892,51.6707764   c-0.3306885,1.7608032-0.3914795,3.609436-1.8849487,5.2575684c-6.2594604-36.706604-0.3556519-70.0487671,24.3331909-98.9919434   c11.3552856-13.3120728,23.4666748-25.994812,33.8292236-40.1531982c4.1882324-5.7224731,7.625-11.8822021,11.263855-17.9437256   c-7.7803955,31.581665-32.5095825,53.4898682-46.8875732,81.34375   c16.3561401-22.3577271,38.5914917-39.3589478,54.8434448-61.7331543   c20.3067017-27.956665,36.008606-57.7355347,40.050354-92.6843872   c0.2459717,22.1655884-4.0675659,43.4334106-12.0461426,64.0020752   c-12.7964478,32.9896851-33.1236572,61.038208-56.9945679,86.7565308   C564.0453491,865.5869751,557.1091309,873.0864258,550.1617432,880.5755005z M660.7304688,835.0563354   c-4.1660156,11.2512817-7.6096802,22.7236938-10.8168335,34.3261719   c-0.4744873-16.3602905,1.2038574-32.4772339,4.9423218-48.3557129   c3.711792-15.7653198,9.0716553-31.0150757,14.7477417-46.3967896   c-27.5287476,41.3477783-59.7126465,78.1655273-100.9796753,106.3619385   c10.8999023-14.4285278,22.5545044-28.22052,33.2455444-42.7728882   c27.1102295-36.9015503,45.3081665-77.5908203,52.1644287-123.0557251   c3.0036621-19.9174194,3.7982788-39.925415,1.5224609-59.9954224c-0.1187134-1.0470581-0.6589966-2.1350708,0.152771-3.2418823   c1.8864746-0.7560425,3.3966064,0.4295044,5.4505005,1.2397461c7.835144,23.4525757,7.8633423,47.729126,6.0028687,72.2387695   c6.2570801-22.2830811,10.4929199-44.756897,6.9848633-68.6949463c5.3915405,1.8686523,9.6791992,4.3538818,14.30896,6.944519   c4.2160645,29.772522,0.3051758,58.7406006-8.4262085,87.2763062   c15.5491943-31.5045166,34.5505371-105.1976929,1.8151855-157.633728   c17.1595459,18.460083,27.7874146,40.2416382,32.8904419,64.9228516   c2.5460815-29.0728149-4.0286865-56.1878662-18.0248413-82.0835571c2.2319946,0.0150146,2.7459106,1.5352173,3.5140991,2.524292   c24.784729,31.9122314,32.5882568,68.1446533,27.2885132,107.6829834   c-4.1100464,30.6619873-17.4789429,57.6703491-33.1206665,83.7780151   C681.8392334,791.074707,669.2626953,812.0137939,660.7304688,835.0563354z M825.2758789,681.7764282   c-6.2972412,26.2525024-17.8065796,50.7005005-22.6967773,77.3294067   c-5.1069336-19.7342529-10.2683105-39.4196777-8.5721436-60.4492798   c-41.7735596,44.4489136-71.7493896,96.3869019-96.380188,151.8399048   c1.6762085-27.8452148,10.8104858-55.9317017,21.5435791-81.4955444   c10.3286743-24.6003418,24.0162354-47.6560669,31.8417358-73.2871094   c15.3875732-50.399353,9.6610107-108.6982422-27.0669556-148.4991455   c21.5847778,15.1575317,36.1480103,37.756958,46.5078735,61.6090698   c-4.385376-33.3891602-20.3786011-61.0296631-42.7039795-85.8659058c2.071228-1.8223267,3.9400024-3.4664917,5.7501831-5.059082   c44.7518311,28.7113037,72.960022,80.5499878,62.5068359,160.0361328   c15.4320679-65.6876831,6.3543091-125.7672119-41.369751-177.5617676c1.8259888-2.0898438,3.4763794-3.9788208,5.4159546-6.1987915   c42.9746704,21.1882324,69.6103516,64.4898071,72.8110962,111.6696777   C834.583313,631.197876,831.1853027,657.1407471,825.2758789,681.7764282z M898.3986816,548.6344604   c-10.8600464-8.9683838-20.277832-19.3458862-30.0981445-31.0221558   c17.9103394,67.0789185,18.1714478,130.6593628-25.2011719,188.4854126   c-1.4329834-1.413147-0.2571411-2.2730103,0.0704956-3.0441284c15.8292236-37.2563477,22.8936768-76.1359863,19.3436279-116.427002   c-5.3284912-60.4747314-31.0056763-109.8322754-82.2178345-144.4174194   c-0.449707-0.3037109-0.8596802-0.6663208-0.6422119-0.4962769c0-13.5552979,0-26.4117432,0-40.3410034   c37.7323608,18.6451416,64.4379883,46.2664185,81.5234985,83.4532471   c-2.5366821-13.4848022-7.1340332-26.1450195-13.765564-38.0462646   c-15.9542847-28.6324463-36.4364624-53.2088623-64.3521729-70.9733276   c-5.8668823-3.7335205-2.4574585-9.5551758-5.0889893-15.1641235c25.9586182,9.0627441,47.2943115,22.5551147,64.9083862,41.979187   c-18.7797241-33.8709717-46.4172974-58.8896484-79.1547852-79.1727295   c23.0633545-0.8719482,44.5796509,3.7608643,65.6962891,12.0390015   c-10.4163208-9.0064697-20.8326416-18.0129395-31.8428955-27.5328979   c19.1431274-5.6157227,37.8856812-7.2506104,57.8114014-6.9227295   c-8.4133301-11.2498169-16.3625488-21.8790894-24.3117065-32.5083008   c15.932373,15.1858521,32.2634888,29.7507935,50.7039185,44.1358032   c-20.2034302-0.1690063-38.8861084,0.8112183-57.2442017,5.6992798c0.6138306,2.3068237,2.4190674,3.0454102,3.7288818,4.1497192   c47.178772,39.7763672,74.4116821,90.7592163,85.0101929,151.1071777   c3.6568604,20.8224487,5.4263916,41.9285889,9.5198975,62.6901245c2.2644653,11.484436,5.1553345,22.7040405,12.2669067,33.9833984   C920.3842773,565.3917847,909.1254883,557.4928589,898.3986816,548.6344604z"/><path d="M401.7426147,249.8324585c-6.1645508,5.1310425-11.1821899,11.4968872-15.2780762,18.3647461   c-5.1242065,8.5922241-7.1386108,15.149231-1.4046021,23.9807739c5.2848511,8.1397705,11.880249,15.3815918,18.2860718,22.6357422   c-8.0663452-3.2191162-17.4154053-1.8927612-25.8651123-1.652832c-7.8372192,0.2225342-15.6747437,0.4518433-23.5079956,0.789978   c-15.3307495,0.6618042-25.9378052,2.8739014-36.8756714,14.3893433   c19.2352295-3.9390869,39.9685669-5.6567993,59.581665-3.6334839c15.213623,1.569458,26.4158325,10.5700684,30.7529297,25.3399048   c5.2382812-9.2217407,9.8984985-19.8230591,8.0222778-30.6689453c-1.7171021-9.9262695-9.2173462-17.9534302-13.3122559-27.0042114   c-5.1000366-11.272522-3.7869263-19.9743042,2.3690796-30.5374756   c5.0163574-8.6074829,11.1737671-16.5419312,19.0222778-22.7545166   C416.9411011,237.7575073,406.4857178,245.8845215,401.7426147,249.8324585z"/><path d="M664.8017578,315.5446777c-6.4168701-1.8584595-13.7406616-1.0147705-20.3653564-1.3884277   c-15.8001099-0.8911133-31.6793213-2.508728-47.3973389,0.2431641   c11.0615234-11.9248047,29.5903931-27.2231445,18.4345703-44.2984009   c-9.6677856-14.7976074-20.2202759-26.1610107-37.8139038-31.0419922   c8.0681152,6.9139404,14.4469604,15.5167236,19.4775391,24.835144c5.3568726,9.9228516,5.7333984,17.791626,1.3942261,28.1622925   c-4.0169067,9.6004639-12.0541992,18.2778931-12.8944702,28.8939819   c-0.7920532,10.0089722,4.0483398,19.3736572,7.7102661,28.3762207   c3.3918457-14.8074341,17.0377197-23.8277588,31.6487427-24.8671875   c18.4371338-1.3116455,38.1138306-0.2345581,56.359436,2.5896606   C676.8231201,322.0932617,671.3719482,317.4475708,664.8017578,315.5446777z"/></g><text x="0" y="1015" fill="#000000" font-size="5px" font-weight="bold" font-family="'Helvetica Neue', Helvetica, Arial-Unicode, Arial, Sans-serif">Created by Brad</text><text x="0" y="1020" fill="#000000" font-size="5px" font-weight="bold" font-family="'Helvetica Neue', Helvetica, Arial-Unicode, Arial, Sans-serif">from the Noun Project</text></svg>